# xmcd
#
# Track frame offsets:
#	150
#	23867
#	51915
#	74095
#	97327
#	130047
#	155490
#	174820
#	198502
#	222065
#
# Disc length: 3335 seconds
#
# Revision: 9
# Processed by: cddbd v1.5.2PL0 Copyright (c) Steve Scherf et al.
# Submitted via: EasyCDDAExtractor 11.1.0.1
#
DISCID=8f0d050a
DTITLE=John Campbell - Howlin' Mercy
DYEAR=1993
DGENRE=Blues
TTITLE0=Ain't Afraid Of Midnight
TTITLE1=When The Levee Breaks
TTITLE2=Down In The Hole
TTITLE3=Look What Love Can Do
TTITLE4=Saddle Up My Pony
TTITLE5=Firin' Line
TTITLE6=Love's Name
TTITLE7=Written In Stone
TTITLE8=Wiseblood
TTITLE9=Wolf Among The Lambs
EXTD=
EXTT0=
EXTT1=
EXTT2=
EXTT3=
EXTT4=
EXTT5=
EXTT6=
EXTT7=
EXTT8=
EXTT9=
PLAYORDER=
